<svg aria-hidden="true" focusable="false" version="1.1" xmlns="http://www.w3.org/2000/svg" viewBox="0 0 2048 2048"><path transform="translate(0,0)" fill="rgb(201,162,75)" d="M 767.669 1570.98 C 765.014 1579.06 761.837 1586.97 758.156 1594.64 C 733.023 1646.98 691.767 1685.2 636.887 1704.74 C 595.443 1720.06 551.833 1717.2 508.407 1716.77 C 479.429 1716.49 444.245 1718.46 415.895 1714 C 395.484 1710.71 375.677 1704.41 357.126 1695.28 C 307.256 1670.45 269.233 1626.9 251.357 1574.13 C 233.567 1521.37 238.993 1465.59 263.597 1415.98 C 287.998 1367.02 330.749 1329.69 382.545 1312.1 C 426.779 1297.19 458.741 1300.56 504.383 1300.66 C 562.588 1300.78 605.088 1294.98 659.009 1322 C 709.539 1347.28 748.056 1391.48 766.198 1444.99 C 778.855 1492.4 781.434 1522.13 767.669 1570.98 z"/><path transform="translate(0,0)" fill="rgb(201,162,75)" d="M 1041.94 625.23 L 1171 625.155 C 1170.93 646.112 1170.18 671.959 1172.15 692.415 C 1177.32 743.264 1199.87 790.773 1236 826.923 C 1276.97 867.539 1332.26 890.439 1389.95 890.691 C 1447.71 890.772 1503.09 867.687 1543.69 826.604 C 1580.99 789.362 1603.65 739.941 1607.52 687.373 C 1608.91 666.551 1607.53 645.573 1608.26 625.116 C 1621.81 625.233 1735.46 624.715 1737.69 625.917 C 1737.55 651.218 1738.23 687.864 1735.72 712.148 C 1726.97 790.78 1691.2 863.939 1634.52 919.132 C 1593.2 959.949 1544.63 987.071 1489.62 1005.13 C 1478.53 1008.76 1466.21 1010.64 1455.48 1014.16 C 1425.09 1019.51 1401.37 1022.13 1370.02 1020 C 1356.93 1019.11 1344.73 1016.93 1332.27 1015.93 C 1260.32 999.922 1198.1 972.128 1144.95 919.361 C 1088.16 862.973 1052.13 791.308 1043.8 711.5 C 1040.94 684.025 1041.88 653.163 1041.94 625.23 z"/><path transform="translate(0,0)" fill="rgb(14,59,56)" d="M 1332.27 1015.93 C 1344.73 1016.93 1356.93 1019.11 1370.02 1020 C 1401.37 1022.13 1425.09 1019.51 1455.48 1014.16 C 1459.17 1063.59 1459.05 1133.82 1455.41 1183.1 C 1449.45 1263.91 1408.18 1356.89 1355.22 1418.29 C 1290.99 1493.31 1203.34 1544.47 1106.43 1563.52 C 1051.25 1574.13 989.268 1571.29 932.824 1571.27 C 877.773 1571.73 822.718 1571.63 767.669 1570.98 C 781.434 1522.13 778.855 1492.4 766.198 1444.99 L 772.111 1445.13 C 827.497 1446.41 885.361 1445.25 940.879 1445.23 C 973.873 1445.21 1014.13 1446.59 1046.4 1444.07 C 1116.96 1438.76 1183.55 1409.34 1234.99 1360.74 C 1291.29 1306.77 1326.6 1231.81 1330.73 1154.24 C 1333.1 1109.67 1331.26 1061.15 1332.27 1015.93 z"/><path transform="translate(0,0)" fill="rgb(14,59,56)" d="M 1212.81 333.162 C 1211.01 310.562 1214.59 291.973 1229.77 274.302 C 1272.5 224.574 1350.19 256.597 1352.05 320.17 C 1352.49 335.182 1351.9 350.153 1352.1 365.168 C 1351.59 398.035 1357.88 429.045 1333.51 455.541 C 1305.9 485.56 1259.97 487.305 1230.18 459.72 C 1229.04 458.668 1227.92 457.59 1226.83 456.488 C 1154.5 492.89 1172.87 557.897 1171 625.155 L 1041.94 625.23 C 1042.08 592.294 1040.04 548.937 1044.3 517.022 C 1056.41 426.441 1123.87 354.198 1212.81 333.162 z"/><path transform="translate(0,0)" fill="rgb(14,59,56)" d="M 1549.76 457.393 C 1533.31 472.092 1517.79 480.328 1494.97 479.086 C 1476.41 478.161 1458.99 469.854 1446.59 456.014 C 1432.74 440.545 1427.52 420.956 1427.85 400.538 C 1428.29 372.873 1427.6 345.074 1427.98 317.434 C 1428.23 298.902 1438.53 278.981 1452.29 266.884 C 1465.98 254.949 1483.85 248.946 1501.98 250.195 C 1535.9 252.751 1563.81 282.06 1566.41 315.585 C 1566.91 322.011 1566.98 328.269 1566.96 334.708 C 1631.05 351.721 1671.88 380.493 1706.53 438.216 C 1746.18 504.283 1735.09 555.223 1737.69 625.917 C 1735.46 624.715 1621.81 625.233 1608.26 625.116 C 1609.32 609.129 1607.7 592.612 1608.56 576.989 C 1611.32 526.451 1602.47 478.99 1549.76 457.393 z"/></svg>