<svg aria-hidden="true" focusable="false" version="1.1" xmlns="http://www.w3.org/2000/svg" viewBox="0 0 2048 2048"><path transform="translate(0,0)" fill="rgb(201,162,75)" d="M 496.689 1191.49 C 490.192 1185.86 481.053 1180.5 473.968 1174.92 C 409.3 1123.93 387.907 1032.47 419.036 956.97 C 429.144 932.454 455.012 895.234 481.619 885.81 C 517.115 873.237 547.652 858.433 577.344 834.584 C 614.861 805.205 647.742 766.518 678.4 729.826 C 700.304 703.612 719.46 676.867 747.317 655.988 C 805.481 610.181 861.1 596.839 930.822 582.205 L 1023.92 562.51 C 1059.09 555.104 1096.15 548.572 1128.83 532.387 C 1153.02 520.403 1187.04 500.716 1202.27 538.384 C 1216.12 572.65 1181.88 609.994 1155.07 626.478 C 1130.24 641.744 1102.82 650.365 1075.41 660.277 C 1039.58 673.336 1003.52 685.765 967.248 697.558 L 964.416 698.54 C 963.891 698.726 963.091 699.041 962.83 699.549 C 963.454 700.77 968.785 699.707 969.607 699.589 L 1139.04 679.114 C 1158.31 676.776 1177.81 673.898 1197.01 671.751 C 1218.29 669.373 1240.52 668.196 1261.92 666.387 L 1401.91 654.601 L 1483.3 647.337 C 1491.6 646.57 1516.66 643.663 1523.71 644.17 C 1532.92 644.856 1541.71 648.337 1548.9 654.15 C 1558.79 662.213 1564.99 674.638 1566.05 687.306 C 1567.04 700.212 1562.79 712.976 1554.25 722.705 C 1548.48 729.384 1540.88 734.226 1532.38 736.631 C 1523.19 739.29 1478.97 743.772 1466.94 745.192 L 1298.37 765.598 C 1279.08 767.892 1259.74 769.575 1240.41 771.528 C 1235.2 772.055 1226.75 772.876 1224.18 778.001 C 1224.62 782.029 1223.82 780.398 1226.28 783.226 C 1237.22 786.319 1359.74 770.549 1380 768.425 L 1530.41 753.529 C 1546.74 751.858 1563.2 750.159 1579.5 748.267 C 1603.01 745.537 1624.67 747.31 1637.91 770.328 C 1644.31 781.291 1645.9 794.405 1642.32 806.58 C 1638.7 819.238 1630.16 829.921 1618.61 836.237 C 1606.07 842.94 1561.02 846.179 1543.66 848.445 C 1467 858.267 1390.29 867.697 1313.54 876.735 L 1250.9 883.945 C 1242.58 884.929 1218.61 885.74 1214.78 892.529 C 1215.44 897.625 1219.87 899.577 1224.64 899.065 C 1239.38 897.484 1253.82 895.476 1268.61 894.22 C 1327.91 888.738 1387.13 882.365 1446.24 875.103 C 1472.32 871.996 1530.64 861.619 1554.87 866.577 C 1600.82 875.977 1599.23 950.667 1549.77 958.392 C 1527.95 962.836 1506.16 964.503 1484.49 967.376 L 1374.03 982.844 C 1364.57 984.107 1325.53 988.736 1318.77 991.281 C 1335.87 992.977 1380.16 995.392 1396.92 995.096 C 1400.62 994.245 1409.91 993.342 1413.98 992.855 C 1442.24 989.504 1486.61 976.703 1507.56 1000.05 C 1532.04 1002.42 1552.66 998.783 1571.07 1020.02 C 1579.01 1029.19 1582.43 1040.39 1581.23 1052.51 C 1579.92 1065.41 1573.41 1077.21 1563.2 1085.21 C 1555.84 1091.02 1547.46 1094.52 1538.16 1095.42 C 1515.9 1097.56 1493.35 1096.75 1471.01 1097.31 L 1315.49 1100.61 L 1263.83 1100.98 C 1255.18 1101.02 1225.42 1098.29 1223.55 1108.47 C 1225.6 1112.99 1230.5 1112.94 1235.32 1113.06 C 1253.82 1113.52 1272.54 1113.05 1291.04 1113.02 L 1492.71 1113.54 L 1567.92 1113.6 C 1581.36 1113.7 1598.03 1112.27 1611.11 1115.85 C 1622.99 1119.1 1633.25 1128.74 1638.67 1139.6 C 1644.22 1150.72 1644.56 1165.15 1640.51 1176.86 C 1636.56 1188.28 1626.88 1197.83 1615.99 1202.79 C 1598.02 1210.96 1549.75 1207.14 1528.33 1207.44 C 1458.4 1208.84 1388.45 1209.69 1318.5 1210 C 1300.08 1210.28 1281.66 1210.39 1263.23 1210.34 C 1254.6 1210.31 1229.52 1207.61 1225.01 1214.7 C 1224.77 1218.5 1224.34 1216.79 1226.36 1220.01 C 1227.95 1221.02 1229.01 1221.66 1230.98 1221.66 C 1256.63 1221.75 1282.7 1221.66 1308.31 1221.72 L 1473.19 1222.38 C 1496.71 1222.54 1528.23 1220.8 1550.98 1225.89 C 1563.49 1228.68 1577.69 1247.47 1579.18 1259.48 C 1584.02 1283.28 1568.61 1309.39 1543.91 1313.42 C 1532.36 1315.23 1520.33 1315.18 1508.6 1315.57 C 1488.79 1316.29 1468.97 1316.88 1449.15 1317.35 L 1276.87 1322.59 C 1250.97 1323.36 1224.77 1323.81 1198.85 1324.31 C 1195.77 1324.37 1193.11 1325.1 1190.65 1326.99 C 1188.71 1330.46 1188.83 1328.78 1189.47 1332.07 C 1196.92 1338.08 1247.56 1335.67 1259.94 1335.68 L 1383.48 1335.79 C 1420.94 1335.65 1481.5 1325.41 1487.86 1376.45 C 1489.3 1388.83 1485.59 1401.25 1477.59 1410.8 C 1461.95 1429.59 1439.57 1429.75 1417.1 1431.35 C 1358.5 1435.2 1299.87 1438.63 1241.22 1441.63 C 1211.13 1443.16 1173.24 1446.31 1143.56 1445.78 L 914.371 1439.55 C 867.583 1438.3 819.563 1434.46 773.132 1440.36 C 734.633 1445.26 697.598 1462.28 663.868 1481.03 C 634.156 1497.54 610.852 1530.58 574.755 1531.8 C 451.521 1531.86 370.683 1389.4 410.659 1278.54 C 428.079 1230.23 451.874 1212.44 496.689 1191.49 z"/><path transform="translate(0,0)" fill="rgb(14,59,56)" d="M 496.689 1191.49 C 490.192 1185.86 481.053 1180.5 473.968 1174.92 C 409.3 1123.93 387.907 1032.47 419.036 956.97 C 429.144 932.454 455.012 895.234 481.619 885.81 C 517.115 873.237 547.652 858.433 577.344 834.584 C 614.861 805.205 647.742 766.518 678.4 729.826 C 700.304 703.612 719.46 676.867 747.317 655.988 C 805.481 610.181 861.1 596.839 930.822 582.205 L 1023.92 562.51 C 1059.09 555.104 1096.15 548.572 1128.83 532.387 C 1153.02 520.403 1187.04 500.716 1202.27 538.384 C 1216.12 572.65 1181.88 609.994 1155.07 626.478 C 1130.24 641.744 1102.82 650.365 1075.41 660.277 C 1039.58 673.336 1003.52 685.765 967.248 697.558 L 964.416 698.54 C 963.891 698.726 963.091 699.041 962.83 699.549 C 963.454 700.77 968.785 699.707 969.607 699.589 L 1139.04 679.114 C 1158.31 676.776 1177.81 673.898 1197.01 671.751 C 1218.29 669.373 1240.52 668.196 1261.92 666.387 L 1401.91 654.601 L 1483.3 647.337 C 1491.6 646.57 1516.66 643.663 1523.71 644.17 C 1532.92 644.856 1541.71 648.337 1548.9 654.15 C 1558.79 662.213 1564.99 674.638 1566.05 687.306 C 1567.04 700.212 1562.79 712.976 1554.25 722.705 C 1548.48 729.384 1540.88 734.226 1532.38 736.631 C 1523.19 739.29 1478.97 743.772 1466.94 745.192 L 1298.37 765.598 C 1279.08 767.892 1259.74 769.575 1240.41 771.528 C 1235.2 772.055 1226.75 772.876 1224.18 778.001 C 1224.62 782.029 1223.82 780.398 1226.28 783.226 C 1237.22 786.319 1359.74 770.549 1380 768.425 L 1530.41 753.529 C 1546.74 751.858 1563.2 750.159 1579.5 748.267 C 1603.01 745.537 1624.67 747.31 1637.91 770.328 C 1644.31 781.291 1645.9 794.405 1642.32 806.58 C 1638.7 819.238 1630.16 829.921 1618.61 836.237 C 1606.07 842.94 1561.02 846.179 1543.66 848.445 C 1467 858.267 1390.29 867.697 1313.54 876.735 L 1250.9 883.945 C 1242.58 884.929 1218.61 885.74 1214.78 892.529 C 1215.44 897.625 1219.87 899.577 1224.64 899.065 C 1239.38 897.484 1253.82 895.476 1268.61 894.22 C 1327.91 888.738 1387.13 882.365 1446.24 875.103 C 1472.32 871.996 1530.64 861.619 1554.87 866.577 C 1600.82 875.977 1599.23 950.667 1549.77 958.392 C 1527.95 962.836 1506.16 964.503 1484.49 967.376 L 1374.03 982.844 C 1364.57 984.107 1325.53 988.736 1318.77 991.281 C 1317.38 991.099 1304.05 991.524 1301.2 991.486 C 1285.97 991.276 1270.74 990.927 1255.51 990.437 C 1235.17 989.898 1214.79 989.415 1194.44 989.106 C 1128.5 988.105 1061.31 992.061 995.469 989.981 C 989.549 990.376 981.644 990.247 975.565 990.319 C 978.911 989.002 982.654 987.833 986.086 986.683 C 1022.1 974.387 1057.97 961.697 1093.7 948.617 C 1136.78 932.944 1191.7 918.713 1213.19 873.884 C 1218.77 862.253 1221.02 849.24 1216.51 836.809 C 1212.8 826.532 1205.09 818.192 1195.13 813.684 C 1174.66 804.636 1151.64 818.409 1132.53 826.093 C 1119.21 831.327 1105.58 835.745 1091.72 839.322 C 1068.3 845.523 1042.66 850.803 1018.91 856.309 C 988.262 863.418 957.697 870.88 927.221 878.694 C 897.669 886.086 866.48 893.445 838.374 904.984 C 791.688 924.153 753.86 949.176 717.12 983.614 C 697.862 1001.69 679.798 1021.01 663.043 1041.43 C 649.758 1057.78 636.534 1076.43 622.895 1092.12 C 594.801 1124.42 560.508 1157.45 523.063 1178.5 C 516.782 1182.04 503.078 1190.4 496.689 1191.49 z"/><path transform="translate(0,0)" fill="rgb(14,59,56)" d="M 1413.98 992.855 C 1442.24 989.504 1486.61 976.703 1507.56 1000.05 C 1478.7 999.881 1442.04 997.874 1413.07 996.035 C 1406.48 996.077 1403.43 996.183 1396.92 995.096 C 1400.62 994.245 1409.91 993.342 1413.98 992.855 z"/><path transform="translate(0,0)" fill="rgb(251,248,241)" fill-opacity="0.0627451" d="M 969.607 699.589 C 968.785 699.707 963.454 700.77 962.83 699.549 C 963.091 699.041 963.891 698.726 964.416 698.54 L 967.248 697.558 L 969.607 699.589 z"/></svg>