<svg aria-hidden="true" focusable="false" version="1.1" xmlns="http://www.w3.org/2000/svg" viewBox="0 0 2048 2048">
<path transform="translate(0,0)" fill="rgb(234,240,229)" d="M 0 0 L 2048 0 L 2048 2048 L 0 2048 L 0 0 z"/>
<path transform="translate(0,0)" fill="rgb(37,59,54)" d="M 823.723 885.56 C 830.802 878.015 840.993 871.01 849.596 865.21 C 896.105 833.856 958.701 819.692 1002.72 863.084 C 1024.62 884.676 1037.63 908.705 1052.15 935.348 C 1065.85 930.324 1105.6 912.711 1116.62 911.266 C 1124.48 910.259 1132.45 911.473 1139.65 914.77 C 1151.18 920.103 1159.98 929.973 1163.97 942.034 C 1166.99 951.268 1166.75 960.492 1165.23 969.955 L 1173.23 975.983 C 1180.27 962.684 1190.06 949.222 1205.15 945.302 C 1235.97 937.958 1247.8 954.472 1260.55 977.86 C 1280.4 1013.69 1308.36 1047.47 1332.5 1080.21 C 1352.06 1106.76 1379.86 1142.33 1384.69 1175.19 C 1391.21 1219.49 1408.53 1228.31 1441.59 1255.17 C 1451.23 1263 1470.03 1276.53 1460.98 1291.65 C 1444.51 1316.78 1421.6 1288.4 1407.09 1277.49 C 1384.82 1260.74 1357.42 1235.79 1351.95 1206.98 C 1342.57 1157.55 1323.32 1133.32 1293.69 1094.36 C 1277.06 1072.6 1260.75 1050.61 1244.74 1028.39 C 1236.81 1017.32 1229.8 1006.83 1223.71 994.617 C 1222.12 991.437 1218.89 984.834 1216.58 982.818 L 1214.94 983.15 C 1199.5 1009.2 1253.78 1087 1265.32 1115.14 C 1300.55 1140.39 1327.71 1171.06 1335.21 1215.19 C 1339.67 1242.73 1332.99 1270.91 1316.65 1293.52 C 1292.14 1327.46 1250.11 1350.84 1210.46 1362.91 C 1203.4 1365.06 1180.52 1368.25 1176.23 1370.28 C 1199.99 1381.88 1219.46 1389.29 1246.31 1389.58 C 1258.73 1389.72 1270.99 1389.26 1283.29 1391.37 C 1309.62 1395.89 1373.56 1434.17 1396.04 1451.5 C 1399.54 1459.37 1401.37 1465.54 1397.97 1473.95 C 1393.46 1485.12 1380.1 1486.74 1370.62 1481.12 C 1343.14 1464.86 1317.43 1445.08 1287.56 1433.21 C 1270.05 1426.31 1248.94 1429.48 1230.54 1428.23 C 1187.95 1426.15 1151.88 1402.67 1115.6 1381.82 C 1115.15 1381.97 1114.05 1382.42 1113.38 1382.53 C 1076.52 1388.5 1038.93 1400.9 1002.38 1406.64 C 943.322 1415.92 868.11 1400.65 815.92 1370.96 C 803.933 1371.22 790.849 1371.24 778.871 1373.78 C 749.957 1379.92 725.025 1399.6 699.227 1413.19 C 692.673 1417.25 686.35 1421.34 679.763 1425.38 C 669.529 1431.66 655.007 1427.03 650.448 1415.47 C 648.547 1410.74 648.733 1405.43 650.961 1400.85 C 658.055 1386.57 738.259 1344.35 756.172 1338.47 C 755.143 1335.14 731.947 1322.21 727.042 1318.88 C 687.9 1292.36 661.155 1271.69 632.114 1234.22 C 622.619 1242.26 607.651 1257.46 594.705 1256.25 C 589.913 1255.8 585.504 1253.43 582.473 1249.7 C 578.929 1245.39 577.293 1239.83 577.943 1234.29 C 579.467 1221.58 599.096 1208.26 609.22 1199.91 C 608.15 1192.85 604.545 1182.36 602.866 1174.92 C 597.663 1151.88 599.315 1126.34 607.229 1104.02 C 631.753 1034.85 695.717 979.082 753.18 936.77 C 765.583 927.637 787.669 909.881 800.845 903.341 C 809.91 893.631 811.986 891.746 823.723 885.56 z"/>
<path transform="translate(0,0)" fill="rgb(127,163,138)" d="M 1134.44 1122.87 C 1125.87 1114.61 1092.78 1095.36 1080.46 1087.82 L 974.302 1023.1 C 966.023 1018.09 939.992 1003.03 934.568 997.943 C 929.315 986.361 941.868 983.93 951.188 989.084 C 977.06 1003.39 1002.76 1017.72 1028.29 1032.66 C 1068 1055.97 1107.93 1078.88 1148.1 1101.38 C 1170.44 1113.48 1263.03 1168.63 1265.32 1115.14 C 1300.55 1140.39 1327.71 1171.06 1335.21 1215.19 C 1339.67 1242.73 1332.99 1270.91 1316.65 1293.52 C 1292.14 1327.46 1250.11 1350.84 1210.46 1362.91 C 1203.4 1365.06 1180.52 1368.25 1176.23 1370.28 C 1163.1 1364.93 1129.84 1343.15 1117.42 1335.12 C 1092.42 1318.95 1066.67 1302.77 1041.83 1286.4 C 1033.1 1282.81 931.947 1215.81 925.034 1209.3 C 922.809 1207.2 921.951 1205.13 921.991 1202.13 C 922.034 1198.97 923.317 1196.72 925.707 1194.73 C 928.502 1192.4 932.525 1191.72 935.978 1192.6 C 944.146 1194.68 953.431 1202.47 960.515 1207.12 C 978.228 1218.74 1038.91 1260.87 1055.12 1262.68 C 1055.55 1262.73 1055.97 1262.76 1056.39 1262.8 C 1072.05 1259.43 1076.19 1250.64 1074.32 1235.61 C 1065.83 1222.99 1025.78 1201.29 1011.51 1191.83 C 990.821 1178.11 967.958 1164.79 947.073 1150.86 C 932.481 1141.13 914.605 1133.17 900.537 1122.32 C 887.021 1112.66 893.306 1098.72 907.176 1102.25 C 914.057 1104.01 927.778 1115.27 934.797 1119.59 L 1038.59 1184.03 C 1052.25 1192.41 1065.89 1201.01 1079.84 1208.87 C 1081.8 1209.98 1085.66 1209.59 1087.86 1209.39 C 1102.37 1204.59 1106.28 1196.64 1104.48 1181.78 C 1100.09 1171.52 1067.18 1154.66 1056.52 1148.19 L 946.86 1080.12 C 931.248 1070.4 915.214 1061.41 899.728 1051.43 C 884.084 1041.34 898.673 1026.8 908.427 1031 C 923.828 1037.62 940.461 1049.02 954.937 1057.93 L 1061.8 1123.31 C 1077.83 1133.15 1094.03 1143.92 1110.54 1152.9 C 1113.09 1154.29 1117.31 1153.98 1120.18 1153.82 C 1135.65 1147.36 1141.77 1138.87 1134.44 1122.87 z"/>
<path transform="translate(0,0)" fill="rgb(127,163,138)" d="M 632.114 1234.22 C 648.177 1217.39 672.087 1204.6 685.445 1183.97 C 702.785 1157.2 702.401 1126.89 716.842 1098.78 C 729.838 1073.48 746.54 1055.28 763.395 1033.28 C 780.007 1011.57 795.859 989.285 810.923 966.472 C 819.313 953.748 826.115 942.469 832.444 928.637 C 833.799 925.674 835.842 924.306 838.933 925.7 C 839.861 927.124 840.716 928.439 841.205 930.084 C 848.214 953.674 803.258 1025.22 791.487 1048.05 C 787.905 1055 785.405 1062.03 788.238 1069.77 C 790.092 1074.83 793.113 1079.17 798.191 1081.31 C 815.676 1088.68 844.392 1074.97 860.675 1068.22 L 868.417 1076.13 C 847.872 1097.79 850.487 1116.11 863.396 1140.21 C 874.282 1152.81 884.064 1158.54 897.96 1167.83 C 892.759 1174.25 889.686 1178.13 886.008 1185.71 C 871.432 1236.17 914.346 1248.61 947.197 1271.8 C 911.267 1294.77 866.61 1326.76 824.047 1330.75 C 797.874 1333.2 782.736 1331.07 756.172 1338.47 C 755.143 1335.14 731.947 1322.21 727.042 1318.88 C 687.9 1292.36 661.155 1271.69 632.114 1234.22 z"/>
<path transform="translate(0,0)" fill="rgb(127,163,138)" d="M 823.723 885.56 C 830.802 878.015 840.993 871.01 849.596 865.21 C 896.105 833.856 958.701 819.692 1002.72 863.084 C 1024.62 884.676 1037.63 908.705 1052.15 935.348 C 1030.6 944.946 1008.42 953.655 986.709 963.057 C 964.303 950.422 951.331 941.488 925.084 949.337 C 905.139 957.302 894.043 973.19 892.918 994.652 C 882.486 998.542 878.767 1000.31 869.554 1006.87 C 862.936 1011.58 854.501 1029.99 848.286 1027.71 C 849.152 1023.02 854.15 1015.74 856.236 1010.82 C 867.86 983.371 881.045 967.219 881.33 936.691 C 881.279 932.97 880.988 929.256 880.457 925.572 C 877.595 905.899 863.747 888.381 843.796 884.568 C 836.785 883.228 830.592 884.362 823.723 885.56 z"/>
<path transform="translate(0,0)" fill="rgb(127,163,138)" d="M 983.345 1295.31 C 1027.76 1323.25 1071.45 1353.43 1115.6 1381.82 C 1115.15 1381.97 1114.05 1382.42 1113.38 1382.53 C 1076.52 1388.5 1038.93 1400.9 1002.38 1406.64 C 943.322 1415.92 868.11 1400.65 815.92 1370.96 C 830.4 1369.81 846.342 1368.13 860.219 1363.88 C 896.687 1352.71 953.442 1318.54 983.345 1295.31 z"/>
<path transform="translate(0,0)" fill="rgb(127,163,138)" d="M 800.845 903.341 C 784.927 932.87 768.731 959.011 748.323 986.316 C 719.715 1024.59 683.766 1063.93 669.312 1110.56 C 664.277 1126.81 663.612 1144.9 653.585 1159.52 C 646.359 1170.04 620.13 1192.87 609.22 1199.91 C 608.15 1192.85 604.545 1182.36 602.866 1174.92 C 597.663 1151.88 599.315 1126.34 607.229 1104.02 C 631.753 1034.85 695.717 979.082 753.18 936.77 C 765.583 927.637 787.669 909.881 800.845 903.341 z"/>
<path transform="translate(0,0)" fill="rgb(127,163,138)" d="M 1121.75 1012.56 C 1129.47 1009.42 1151.21 995.176 1154.68 1010.55 C 1157.08 1021.14 1144.91 1023.96 1137.22 1027.62 C 1131.2 1030.89 1121.97 1033.78 1115.22 1036.77 C 1107.72 1033 1101.08 1028.99 1094.05 1024.49 C 1102.89 1020.49 1112.61 1015.78 1121.75 1012.56 z"/>
<path transform="translate(0,0)" fill="rgb(234,240,229)" d="M 1121.75 1012.56 C 1129.47 1009.42 1151.21 995.176 1154.68 1010.55 C 1157.08 1021.14 1144.91 1023.96 1137.22 1027.62 C 1132.55 1022.98 1125.44 1017.24 1121.75 1012.56 z"/>
<path transform="translate(0,0)" fill="rgb(127,163,138)" d="M 1033.56 988.894 C 1044.75 982.924 1069.58 972.355 1081.83 967.385 C 1084.11 973.448 1085.88 975.503 1090.34 980.168 C 1076.68 986.501 1062.42 992.779 1048.63 998.938 C 1042.73 994.831 1039.58 992.691 1033.56 988.894 z"/>
<path transform="translate(0,0)" fill="rgb(234,240,229)" d="M 1081.83 967.385 C 1085.74 965.69 1121.99 949.714 1123.59 951.393 C 1133.78 962.117 1122.28 965.963 1113.5 969.994 C 1106.09 973.397 1097.12 976.908 1090.34 980.168 C 1085.88 975.503 1084.11 973.448 1081.83 967.385 z"/>
<path transform="translate(0,0)" fill="rgb(234,240,229)" d="M 1182.16 1054.83 C 1195.09 1056.03 1197.21 1082.1 1177.19 1072.16 C 1172.21 1069.03 1168.11 1066.69 1162.99 1063.26 C 1169.3 1060.73 1175.9 1057.61 1182.16 1054.83 z"/>
<path transform="translate(0,0)" fill="rgb(37,59,54)" d="M 854.072 570.113 C 870.626 569.11 874.872 573.564 880.79 589.035 C 885.395 601.074 888.604 614.038 893.152 626.068 C 913.553 680.032 927.631 740.537 902.092 795.456 C 872.89 857.531 789.744 893.425 727.79 914.31 C 693.196 926.134 654.972 934.29 620.914 947.151 C 519.289 985.526 490.883 1104.31 487.772 1201.85 C 487.427 1212.69 487.62 1225.86 484.313 1236 C 482.46 1241.67 475.853 1244.45 470.752 1246.02 C 467.46 1245.98 464.3 1245.77 461.105 1244.91 C 456.338 1243.62 452.536 1240.54 450.112 1236.25 C 440.176 1218.65 458.296 1108.4 464.79 1083.9 C 474.397 1047.66 488.967 1013.89 511.386 983.613 C 530.069 958.384 554.991 936.075 582.761 921.282 C 604.684 909.604 629.79 903.018 653.419 895.603 C 706.215 879.035 758.738 863.952 806.886 835.82 C 869.075 799.483 889.352 751.62 871.136 681.799 C 865.162 658.9 855.921 636.343 847.808 614.101 C 844.549 605.165 837.887 591.572 840.813 582.125 C 842.545 576.532 849.266 572.653 854.072 570.113 z"/>
<path transform="translate(0,0)" fill="rgb(37,59,54)" d="M 1185.62 569.088 C 1219.46 569.754 1203.04 608.749 1195.99 627.297 C 1165.58 709.554 1150.78 783.006 1237.58 833.616 C 1300.06 870.695 1370.87 886.073 1438.55 909.244 C 1512.95 934.718 1566.08 1009.63 1584.75 1083.56 C 1595.96 1127.96 1599.31 1174.15 1601.64 1219.71 C 1602.4 1234.59 1599.71 1241.03 1585.46 1246.7 C 1562.59 1245.42 1562.78 1231.45 1561.77 1212.51 C 1559.21 1164.15 1555.57 1113.68 1538.79 1068.17 C 1508.32 985.531 1454.34 949.2 1372.21 928.957 C 1337.51 920.406 1291.63 904.193 1259.3 889.399 C 1212.27 867.877 1160.06 836.889 1143.13 785 C 1122.96 725.842 1136.82 675.473 1157.8 619.653 C 1162.61 606.839 1166.02 592.206 1171.63 579.725 C 1174.63 573.049 1179.06 571.305 1185.62 569.088 z"/>
</svg>