<svg aria-hidden="true" focusable="false" version="1.1" xmlns="http://www.w3.org/2000/svg" viewBox="0 0 2048 2048">
<path transform="translate(0,0)" fill="rgb(234,240,229)" d="M 0 0 L 2048 0 L 2048 2048 L 0 2048 L 0 0 z"/>
<path transform="translate(0,0)" fill="rgb(37,59,54)" d="M 890.882 569.297 C 903.88 549.322 922.971 537.617 945.984 534.833 C 1039.66 523.498 1162.05 527.506 1178.68 645.695 C 1187.52 708.469 1194.17 786.157 1164.14 844.542 C 1155.76 859.096 1135.94 871.653 1120.73 877.326 C 1126.84 905.984 1134 934.846 1147.24 961.296 C 1161.41 989.439 1192.02 1025.38 1150.88 1047.75 C 1136.56 1055.54 1103.06 1050.68 1109.95 1076.35 C 1120.49 1115.59 1119.25 1134.15 1091.54 1164.15 L 1091.2 1165.53 C 1088.09 1178.71 1092.51 1192.05 1093.58 1206.02 C 1095.81 1235.4 1087.51 1265.26 1061.57 1281.91 C 1041.48 1294.8 1025.17 1290.79 1003.41 1292.88 C 899.305 1302.85 916.68 1437.64 948.649 1505 C 954.22 1516.74 960.245 1533.44 947.032 1542.39 C 935.845 1549.51 924.166 1542.58 918.876 1531.77 C 890.073 1472.88 875.306 1406.91 894.453 1342.56 C 902.996 1313.85 915.344 1298.35 936.279 1278.18 C 850.289 1246.2 755.632 1200.95 713.768 1112.44 C 704.862 1093.61 691.601 1055.2 697.293 1034.17 C 701.481 1018.7 728.382 1020.62 731.221 1037.5 C 734.884 1052.6 736.874 1067.45 743.06 1081.72 C 765.299 1142.06 819.636 1180.02 873.806 1209.65 C 912.862 1230.58 984.825 1262.99 1029.74 1251.1 C 1038.71 1248.72 1046.72 1242.02 1050.64 1233.56 C 1062.36 1208.32 1047.81 1186.02 1050.14 1160.52 C 1052.04 1139.75 1080.91 1141.47 1073.81 1120.19 C 1072.06 1114.95 1067.77 1112.53 1063.5 1109.52 C 1068.91 1107.18 1072.69 1105.55 1075.04 1099.89 C 1084.1 1077.97 1048.34 1046.07 1099.57 1022.79 C 1109.33 1018.36 1119.7 1015.53 1130.17 1013.38 C 1104.82 966.09 1091.22 940.321 1082.95 884.91 C 1019.59 885.555 957.263 878.497 916.036 823.647 C 868.306 760.144 873.663 681.914 883.443 607.763 C 871.165 606.243 852.1 606.498 839.656 607.106 C 778.127 610.111 720.565 634.043 679.317 680.727 C 651.854 712.44 631.968 749.986 621.162 790.522 C 601.416 865.349 616.337 935.442 647.081 1004.51 C 675.711 1068.83 700.795 1127.34 705.216 1198.41 C 710.832 1288.25 680.396 1376.61 620.651 1443.94 C 605.136 1461.43 548.488 1520.31 526.693 1520.9 C 522.186 1521.02 518.308 1519.18 515.214 1515.94 C 511.627 1512.19 509.752 1507.12 510.035 1501.94 C 510.855 1488.3 542.504 1469.28 553.148 1459.99 C 668.461 1359.32 695.65 1211.62 633.948 1073.35 C 617.44 1036.36 593.471 980.657 583.289 940.516 C 574.922 906.724 571.88 871.834 574.272 837.104 C 581.585 727.778 651.221 624.525 754.921 585.408 C 800.975 568.036 842.84 565.9 890.882 569.297 z"/>
<path transform="translate(0,0)" fill="rgb(127,163,138)" d="M 890.882 569.297 C 903.88 549.322 922.971 537.617 945.984 534.833 C 1039.66 523.498 1162.05 527.506 1178.68 645.695 C 1187.52 708.469 1194.17 786.157 1164.14 844.542 C 1155.76 859.096 1135.94 871.653 1120.73 877.326 C 1116.93 852.326 1117.29 831.184 1115.13 806.461 C 1110.79 756.484 1092.34 708.768 1061.94 668.864 C 1020.59 614.064 958.952 578.185 890.882 569.297 z"/>
<path transform="translate(0,0)" fill="rgb(127,163,138)" d="M 883.443 607.763 C 947.434 618.95 994.322 642.61 1033.27 696.848 C 1056.34 728.975 1073.13 771.885 1076.55 811.318 C 1078.73 836.366 1078.74 859.582 1082.95 884.91 C 1019.59 885.555 957.263 878.497 916.036 823.647 C 868.306 760.144 873.663 681.914 883.443 607.763 z"/>
<path transform="translate(0,0)" fill="rgb(37,59,54)" d="M 1652.17 1033.4 C 1705.49 1028.62 1752.01 1068.26 1800.03 1084.7 C 1832.5 1095.82 1864.74 1081.38 1892.84 1065.67 C 1900.73 1061.26 1908.85 1068.83 1905.14 1077.23 C 1893.63 1093.11 1869.99 1103.56 1851.62 1109.62 C 1801.57 1126.11 1755.41 1106.72 1712.05 1082.22 C 1666.87 1053.39 1621.4 1055.08 1577.73 1088.83 C 1515.25 1137.11 1460.8 1126.61 1392.13 1089.92 C 1379.16 1082.81 1365.72 1075.06 1351 1070.45 C 1299.4 1054.3 1256.53 1100.12 1210.35 1113.82 C 1193.27 1118.89 1141.01 1122.82 1135.43 1100.26 C 1130.94 1082.12 1174.1 1097.1 1181.53 1095.3 C 1204.34 1095.57 1232.19 1082.6 1250.81 1070.79 C 1308.89 1033.96 1352.5 1027.61 1414.14 1060.69 C 1442.55 1075.94 1477.91 1096.93 1512.21 1092.19 C 1570.11 1084.19 1589.41 1038.48 1652.17 1033.4 z"/>
<path transform="translate(0,0)" fill="rgb(37,59,54)" d="M 1332.75 1101.39 C 1391.79 1092.63 1451.75 1156.48 1507.99 1156.93 C 1572.17 1157.44 1600.21 1097.34 1669.63 1104.45 C 1693.71 1106.39 1720.67 1116.94 1738.45 1133.4 C 1743.84 1138.39 1738.94 1146.69 1734.27 1150.36 C 1722.89 1152.81 1703.94 1137.59 1690.02 1132.96 C 1657.15 1122.02 1627.76 1130.15 1598.61 1147.12 C 1584.26 1155.48 1570.05 1165.96 1555.62 1173.03 C 1510.28 1194.5 1460.33 1187.14 1417.15 1163.96 C 1396.11 1152.66 1375.38 1139.03 1352.64 1131.44 C 1315.39 1119 1280.73 1142.83 1248.2 1159.79 C 1216.47 1177.97 1182.39 1183.09 1147.48 1171.05 C 1140.34 1168.58 1134.71 1162.06 1137.91 1154.24 C 1147.73 1145.78 1173.8 1157.49 1193.7 1154.63 C 1251.6 1146.32 1270.87 1108.06 1332.75 1101.39 z"/>
</svg>