<svg aria-hidden="true" focusable="false" version="1.1" xmlns="http://www.w3.org/2000/svg" viewBox="0 0 2048 2048">
<path transform="translate(0,0)" fill="rgb(234,240,229)" d="M 0 0 L 2048 0 L 2048 2048 L 0 2048 L 0 0 z"/>
<path transform="translate(0,0)" fill="rgb(37,59,54)" d="M 1213.12 472.983 L 1212.91 415.032 C 1212.89 405.535 1212.26 386.742 1214.13 378.337 C 1215.54 371.775 1218.78 365.75 1223.49 360.966 C 1227.57 356.839 1232.77 353.992 1238.44 352.775 C 1249.59 350.386 1280.38 351.721 1293.52 351.761 C 1312.36 352.014 1331.25 351.303 1350.08 351.75 C 1427.22 353.581 1502.68 385.458 1556.05 441.571 C 1602.29 490.182 1632.21 555.369 1635.26 622.718 C 1636.53 650.559 1635.7 678.477 1635.96 706.338 C 1636.06 724.163 1628.45 740.035 1608.71 741.422 C 1572.69 743.043 1536.13 741.558 1499.93 742.094 C 1499.05 758.99 1496.55 779.292 1491.91 795.536 C 1482.22 829.433 1451.16 899.617 1429.04 926.345 C 1438 937.998 1447.6 948.886 1456.45 960.903 C 1475.96 987.759 1492.24 1016.82 1504.94 1047.49 C 1535.24 1119.82 1541.61 1206.4 1524.41 1282.97 C 1518.87 1307.63 1508.25 1334.91 1498.67 1358.23 C 1504.73 1369.15 1511.26 1380.94 1515.6 1392.61 C 1527.26 1424.7 1525.81 1460.09 1511.55 1491.12 C 1494.96 1526.36 1467.84 1551.43 1431.14 1564.22 C 1387.13 1579.56 1353.71 1571.73 1313.29 1552.81 C 1300.64 1557.18 1278.83 1562.9 1265.54 1565.84 C 1253.45 1568.59 1241.16 1570.38 1228.79 1571.19 C 1189.62 1573.9 1144.95 1572.25 1105.42 1572.83 C 1085.05 1572.61 1065.37 1573.47 1045 1572.34 C 1020.2 1570.97 1008.25 1544.74 1021.01 1524.81 C 1030.64 1509.75 1059.29 1513.43 1075.46 1513.57 C 1106.22 1513.87 1136.99 1513.99 1167.75 1513.91 C 1190.71 1513.86 1214.87 1514.27 1237.56 1511.26 C 1252.28 1509.32 1266.83 1506.26 1281.09 1502.1 C 1293.53 1498.57 1308.19 1489.62 1321.08 1489.84 C 1344.05 1490.24 1355.03 1520.07 1398.19 1513.03 C 1419.29 1509.69 1438.14 1497.97 1450.48 1480.54 C 1466.75 1457.41 1470.09 1427.98 1456.13 1403.17 C 1449.95 1391.57 1435.49 1376.99 1437.78 1362.84 C 1440.71 1344.8 1450.83 1324.63 1456.67 1307.08 C 1476.18 1248.19 1480.4 1185.31 1468.91 1124.35 C 1438.09 952.612 1251.04 825.596 1079.5 856.911 C 930.718 884.071 815.037 1001.74 796.749 1153.34 C 795.211 1166.09 795.123 1185.66 787.695 1195.86 C 783.527 1201.7 777.163 1205.59 770.067 1206.63 C 762.35 1207.8 754.488 1205.79 748.282 1201.06 C 729.663 1187.01 737.277 1158.04 740.503 1137.92 C 750.124 1077.92 773.754 1019.06 806.889 968.185 C 816.544 953.36 828.184 939.112 839.171 925.255 C 803.172 870.678 767.021 798.926 767.346 732.239 C 767.968 604.646 879.453 490.463 1004.46 475.965 C 1030.12 472.988 1058.66 473.942 1084.63 473.917 L 1189.78 473.848 C 1197.99 473.252 1204.87 473.05 1213.12 472.983 z"/>
<path transform="translate(0,0)" fill="rgb(127,163,138)" d="M 1213.12 472.983 L 1212.91 415.032 C 1212.89 405.535 1212.26 386.742 1214.13 378.337 C 1215.54 371.775 1218.78 365.75 1223.49 360.966 C 1227.57 356.839 1232.77 353.992 1238.44 352.775 C 1249.59 350.386 1280.38 351.721 1293.52 351.761 C 1312.36 352.014 1331.25 351.303 1350.08 351.75 C 1427.22 353.581 1502.68 385.458 1556.05 441.571 C 1602.29 490.182 1632.21 555.369 1635.26 622.718 C 1636.53 650.559 1635.7 678.477 1635.96 706.338 C 1636.06 724.163 1628.45 740.035 1608.71 741.422 C 1572.69 743.043 1536.13 741.558 1499.93 742.094 C 1500.1 666.949 1474.83 612.372 1424.36 557.441 C 1381.22 510.472 1318.25 482.303 1255.18 475.466 C 1232.76 473.035 1211.97 474.722 1189.78 473.848 C 1197.99 473.252 1204.87 473.05 1213.12 472.983 z"/>
<path transform="translate(0,0)" fill="rgb(234,240,229)" d="M 1212.27 645.614 C 1240.05 644.402 1264.9 655.738 1285.84 673.592 C 1305.15 690.066 1325.64 731.768 1319.15 757.274 C 1317.32 781.446 1299.8 805.619 1287.06 825.636 C 1174.66 782.549 1093.85 784.196 981.414 825.623 C 964.388 802.693 948.44 778.39 947.214 749.053 C 946.117 722.824 954.952 696.104 972.641 676.612 C 984.574 663.323 1000.23 653.932 1017.57 649.658 C 1036.78 644.832 1064.88 647.187 1085.27 646.659 C 1127.11 645.574 1170.6 647.402 1212.27 645.614 z"/>
<path transform="translate(0,0)" fill="rgb(127,163,138)" d="M 1212.27 645.614 C 1240.05 644.402 1264.9 655.738 1285.84 673.592 C 1305.15 690.066 1325.64 731.768 1319.15 757.274 L 1319.2 741.845 L 1270.02 742.18 C 1256.09 742.269 1234.82 744.048 1224 734.859 C 1202.64 716.715 1218.21 669.626 1212.27 645.614 z"/>
<path transform="translate(0,0)" fill="rgb(234,240,229)" d="M 882.699 885.654 C 855.33 842.053 827.512 787.397 826.559 735.23 C 824.647 630.57 916.992 545.537 1016.93 533.883 C 1035.94 531.666 1059.19 532.949 1078.63 532.985 L 1172.51 533.156 C 1184.8 534.091 1200.32 533.764 1212.91 533.778 L 1212.97 587.998 C 1178.29 588.056 1143.62 587.822 1108.95 587.295 C 1079.05 587.067 1040.87 586.051 1012.13 592.034 C 994.657 595.6 977.991 602.362 962.972 611.981 C 890.342 657.676 865.512 742.591 906.813 819.421 C 913.299 831.487 920.419 842.547 927.723 854.144 C 913.492 863.066 896.606 875.712 882.699 885.654 z"/>
<path transform="translate(0,0)" fill="rgb(127,163,138)" d="M 1172.51 533.156 C 1249.58 529.951 1313.78 536.292 1374.23 590.682 C 1416.76 628.949 1437.8 683.667 1440.07 740.457 L 1440.12 741.924 L 1377.91 742.048 C 1371.52 676.003 1335.8 622.975 1273.06 597.737 C 1253.37 589.818 1233.99 588.148 1212.97 587.998 L 1212.91 533.778 C 1200.32 533.764 1184.8 534.091 1172.51 533.156 z"/>
<path transform="translate(0,0)" fill="rgb(234,240,229)" d="M 1377.91 742.048 L 1440.12 741.924 C 1439.95 751.302 1439.13 761.304 1436.78 770.407 C 1429.44 798.91 1403.41 861.519 1385.58 883.567 C 1371.31 872.261 1356.26 861.973 1340.55 852.78 C 1362.96 815.434 1379.15 787.295 1377.91 742.048 z"/>
<path transform="translate(0,0)" fill="rgb(37,59,54)" d="M 773.115 1378.34 C 773.635 1344 771.484 1315.84 792.772 1286.53 C 807.952 1265.45 829.29 1254 854.512 1249.86 C 906.853 1241.03 952.114 1280.79 957.959 1332.1 C 959.438 1353.83 960.723 1376.35 960.132 1398.23 C 958.933 1442.62 970.047 1496.07 941.466 1533.97 C 923.445 1557.87 901.217 1567.87 872.898 1571.94 L 871.541 1571.97 C 845.599 1572.45 823.373 1565.29 804.413 1547.13 C 772.582 1516.63 772.467 1478.69 771.707 1437.8 C 716.178 1435.72 649.349 1437.93 592.784 1438.24 C 591.233 1476.18 597.5 1501.61 573.13 1534.86 C 523.73 1603.26 420.237 1572.42 409.448 1490.9 C 405.019 1451.99 410.401 1409.04 407.76 1370.4 C 403.55 1308.83 425.805 1257.97 492.588 1249.36 C 495.671 1249.06 498.766 1248.9 501.863 1248.87 C 525.226 1248.8 547.628 1258.17 563.992 1274.84 C 594.972 1305.96 593.029 1339.16 593.002 1379.16 C 652.475 1380.06 713.159 1377.94 773.115 1378.34 z"/>
<path transform="translate(0,0)" fill="rgb(234,240,229)" d="M 492.492 1307.16 C 499.444 1306.76 505.596 1306.87 512.337 1309.04 C 520.481 1311.66 528.223 1317.24 531.917 1325.16 C 534.247 1330.16 534.849 1336.51 535.194 1342 C 536.45 1361.94 536.999 1482.25 531.61 1495.1 C 527.356 1505.24 518.405 1509.55 508.903 1513.64 C 501.542 1515.17 496.847 1515.36 489.659 1512.8 C 480.55 1509.59 473.194 1502.72 469.361 1493.86 C 467.879 1490.4 466.723 1483.64 466.705 1479.76 C 466.481 1433.05 466.45 1386.23 467.24 1339.53 C 467.524 1322.71 477.277 1312.7 492.492 1307.16 z"/>
<path transform="translate(0,0)" fill="rgb(234,240,229)" d="M 859.506 1307.16 C 875.188 1305.63 889.779 1311.04 896.445 1326.71 C 898.513 1332.93 900.638 1341.56 900.722 1348.07 C 901.266 1390.45 902.039 1433.11 901.542 1475.47 C 901.324 1494.04 891.734 1506.46 874.855 1513.27 C 850.759 1517.76 832.329 1502.11 832.56 1477.7 C 832.982 1433.14 832.313 1388.47 833.406 1343.93 C 833.884 1324.43 841.481 1313.78 859.506 1307.16 z"/>
</svg>