<svg aria-hidden="true" focusable="false" version="1.1" xmlns="http://www.w3.org/2000/svg" viewBox="0 0 2048 2048">
<path transform="translate(0,0)" fill="rgb(234,240,229)" d="M 0 0 L 2048 0 L 2048 2048 L 0 2048 L 0 0 z"/>
<path transform="translate(0,0)" fill="rgb(37,59,54)" d="M 697.269 1001.7 C 691.725 980.563 695.409 934.657 702.066 913.004 C 729.722 823.057 837.045 753.303 914.687 709.487 C 970.162 676.475 1033.88 666.33 1096.22 685.008 C 1140.59 698.297 1211.82 744.8 1233.82 785.98 C 1313.35 790.811 1386.99 777.918 1451.99 728.247 C 1460.17 721.993 1467.24 712.925 1476 707.192 C 1497.25 691.844 1527.89 711.801 1522.83 736.858 C 1496.25 868.49 1428.85 994.699 1323.76 1079.82 L 1305.82 1094.24 C 1354.09 1106.48 1455.38 1123.92 1477.31 1166.74 C 1514.4 1239.15 1322.92 1274.75 1287.77 1280.78 C 1153.67 1302.71 1017.37 1307.92 881.991 1296.3 C 810.571 1289.75 730.639 1276.19 662.367 1255.21 C 642.741 1249.37 623.862 1241.27 606.108 1231.06 C 568.522 1253.47 539.218 1223.2 560.052 1186.03 C 581.806 1147.21 609.797 1113.99 640.951 1082.42 C 641.939 1081.62 642.631 1080.9 643.536 1080 C 651.459 1070.62 677.435 1049.09 686.975 1041.02 C 690.712 1029.58 693.253 1014.72 697.269 1001.7 z"/>
<path transform="translate(0,0)" fill="rgb(127,163,138)" d="M 697.269 1001.7 C 691.725 980.563 695.409 934.657 702.066 913.004 C 729.722 823.057 837.045 753.303 914.687 709.487 C 970.162 676.475 1033.88 666.33 1096.22 685.008 C 1140.59 698.297 1211.82 744.8 1233.82 785.98 C 1183.33 782.837 1125.61 772.272 1076.5 772.11 C 975.406 771.778 856.448 811.232 780.139 878.873 C 744.938 910.076 709.711 956.701 697.269 1001.7 z"/>
<path transform="translate(0,0)" fill="rgb(127,163,138)" d="M 1280.18 848.136 C 1337.9 846.438 1385.84 835.891 1437.76 809.238 C 1387.41 941.673 1308.34 1038.04 1177.15 1097.43 C 1107.44 1128.98 1024.11 1143.36 948.915 1125.6 C 946.193 1125.42 929.135 1120.68 925.289 1119.68 C 876.874 1107.04 818.315 1081.58 777.432 1052.75 C 794.97 1042.04 815.12 1033.79 834.103 1026 C 899.538 999.178 966.981 980.391 1038.21 982.322 C 1055.68 982.796 1101.51 989.405 1115.3 984.739 C 1122.84 982.185 1128.61 976.137 1131.84 968.971 C 1135.48 961.036 1135.66 951.951 1132.36 943.872 C 1122.32 919.725 1081.77 922.623 1059.52 920.979 C 955.504 913.296 865.501 945.309 771.506 986.011 C 814.476 897.396 953.552 841.532 1047.03 834.814 C 1107.38 830.476 1171.75 842.933 1232.16 847.204 C 1248.56 848.364 1263.9 847.782 1280.18 848.136 z"/>
<path transform="translate(0,0)" fill="rgb(234,240,229)" d="M 1280.18 848.136 C 1337.9 846.438 1385.84 835.891 1437.76 809.238 C 1387.41 941.673 1308.34 1038.04 1177.15 1097.43 C 1107.44 1128.98 1024.11 1143.36 948.915 1125.6 C 950.434 1124.61 988.471 1118.57 994.677 1116.82 C 1021.42 1109.27 1043.94 1097.31 1069.48 1087.24 C 1148.9 1055.9 1272.45 1008 1275.05 906.406 C 1275.54 886.721 1271.2 868.148 1265.99 849.08 C 1271.35 848.989 1274.92 848.693 1280.18 848.136 z"/>
<path transform="translate(0,0)" fill="rgb(234,240,229)" d="M 723.915 1090.81 C 746.195 1106.94 770.31 1120.72 794.035 1134.59 C 782.167 1135.36 761.572 1140.74 751.281 1146.44 C 688.179 1181.4 789.651 1213.11 813.963 1219.3 C 843.837 1226.96 874.21 1232.52 904.859 1235.94 C 1010.76 1247.47 1196.85 1247.19 1294.35 1196.8 C 1302.43 1192.42 1316.46 1180.68 1317.76 1171.64 C 1321.56 1145.36 1267.22 1135.53 1248.01 1131.43 C 1267.26 1121.13 1285.65 1109.31 1303 1096.07 C 1338.6 1104.28 1368.65 1113.65 1401.22 1130.07 C 1408.35 1133.65 1415.07 1138.01 1421.24 1143.07 C 1429.39 1149.85 1435.68 1158.03 1436.57 1168.87 C 1437.2 1176.57 1432.1 1186.95 1426.98 1192.05 C 1370.43 1248.35 1222.03 1262.73 1148.79 1268.02 C 1118.38 1269.99 1087.93 1271.13 1057.46 1271.45 C 943.423 1273.67 821.919 1267.3 711.077 1238.58 C 684.441 1231.68 644.848 1218.59 624.325 1200.84 C 640.835 1169.08 696 1113.3 723.915 1090.81 z"/>
<path transform="translate(0,0)" fill="rgb(234,240,229)" d="M 1242.47 1135.03 C 1255.95 1140.34 1286.65 1147.14 1294.38 1160.14 C 1295.76 1162.45 1295.47 1165.36 1294.64 1167.92 C 1292.25 1175.29 1278.36 1182.3 1271.5 1185.03 C 1161.51 1228.71 883.578 1227.86 779.419 1186.05 C 771.172 1182.28 749.995 1173.96 754.685 1162.07 C 759.656 1149.47 787.459 1141.23 799.157 1136.86 C 952.648 1210.97 1090.1 1217.68 1242.47 1135.03 z"/>
<path transform="translate(0,0)" fill="rgb(37,59,54)" d="M 1459.34 1090.56 C 1514.07 1104.04 1603.84 1129.29 1634.89 1179.79 C 1641.54 1190.61 1644.5 1202.71 1641.52 1215.24 C 1635.14 1242.05 1609 1262.07 1586.56 1275.34 C 1442.8 1360.32 1185.45 1372.73 1019.64 1372.44 C 942.337 1372.88 865.06 1369.37 788.112 1361.93 C 733.075 1356.18 660.124 1344.49 606.2 1330.58 C 549.298 1315.89 446.236 1283.85 413.911 1231.38 C 406.997 1220.15 404.056 1205.88 407.591 1192.93 C 414.75 1166.73 443.904 1146.53 466.38 1134.29 C 500.109 1115.93 540.266 1103.32 577.39 1093.99 L 578.71 1095.61 C 412.87 1147.39 379.454 1225.25 568.4 1284.68 C 650.308 1310.45 738.342 1322.26 823.901 1329.68 C 889.461 1335.04 955.222 1337.57 1021 1337.27 C 1169.79 1337.64 1326.12 1328.26 1470.13 1287.68 C 1510.84 1276.23 1594.39 1247.27 1607.25 1203.52 C 1624.22 1145.83 1499.88 1103.51 1460.89 1092.96 L 1459.34 1090.56 z"/>
<path transform="translate(0,0)" fill="rgb(127,163,138)" d="M 577.39 1093.99 C 592.469 1088.66 627.363 1081.86 643.536 1080 C 642.631 1080.9 641.939 1081.62 640.951 1082.42 L 636.529 1082.83 C 616.77 1084.75 597.493 1092.66 578.71 1095.61 L 577.39 1093.99 z"/>
<path transform="translate(0,0)" fill="rgb(127,163,138)" d="M 1460.89 1092.96 C 1456.18 1091.89 1412.78 1081.32 1412.53 1080.52 C 1414.58 1080.42 1415.98 1080.81 1417.98 1081.33 C 1419.53 1081.69 1421.1 1081.99 1422.67 1082.23 C 1430.5 1083.51 1452.91 1087.79 1459.34 1090.56 L 1460.89 1092.96 z"/>
</svg>