<svg xmlns="http://www.w3.org/2000/svg" viewBox="0 0 1200 1400" width="1200" height="1400" preserveAspectRatio="xMidYMid slice" role="img" aria-label="A quiet room with the blinds half drawn">
  <title>A quiet room with the blinds half drawn</title>
  <defs>
  <linearGradient id="sky11" x1="0" y1="0" x2="0" y2="1">
    <stop offset="0" stop-color="#D6DCD3"/>
    <stop offset="0.62" stop-color="#B9C6BC"/>
    <stop offset="1" stop-color="#8FA79B"/>
  </linearGradient>
  <radialGradient id="glow11" cx="0.5" cy="0.34" r="0.6">
    <stop offset="0" stop-color="#F6EFDC" stop-opacity=".85"/>
    <stop offset=".45" stop-color="#F6EFDC" stop-opacity=".3"/>
    <stop offset="1" stop-color="#F6EFDC" stop-opacity="0"/>
  </radialGradient>
  <linearGradient id="mist11" x1="0" y1="0" x2="0" y2="1">
    <stop offset="0" stop-color="#5E6F68" stop-opacity="0.26"/>
    <stop offset="1" stop-color="#5E6F68" stop-opacity="0"/>
  </linearGradient>
  <linearGradient id="water11" x1="0" y1="0" x2="0" y2="1">
    <stop offset="0" stop-color="#B9C6BC"/>
    <stop offset="1" stop-color="#D6DCD3"/>
  </linearGradient>
  <filter id="g11" x="0" y="0" width="100%" height="100%">
    <feTurbulence type="fractalNoise" baseFrequency="0.9" numOctaves="3" seed="11" result="n"/>
    <feColorMatrix type="saturate" values="0" in="n" result="d"/>
    <feComponentTransfer in="d" result="t"><feFuncA type="linear" slope="0.13"/></feComponentTransfer>
    <feComposite operator="in" in="t" in2="SourceGraphic"/>
  </filter>
  </defs>
  <g>
    <rect width="1200" height="1400" fill="#C6D0C7"/>
    <rect width="1200" height="1400" fill="url(#sky11)" opacity=".55"/>
    <path d="M 320.0 1150 L 320.0 530.0 A 280.0 280.0 0 0 1 880.0 530.0 L 880.0 1150 Z" fill="url(#glow11)"/>
    <path d="M 320.0 1150 L 320.0 530.0 A 280.0 280.0 0 0 1 880.0 530.0 L 880.0 1150 Z" fill="#F6EFDC" opacity=".28"/>
    <path d="M 250.0 1400 L 360.0 1150 L 840.0 1150 L 950.0 1400 Z" fill="#F6EFDC" opacity=".16"/>
    <rect x="0" y="1150" width="1200" height="250" fill="#93A399" opacity=".92"/>
    <rect x="0" y="1150" width="1200" height="250" fill="url(#mist11)"/>
  </g>
  <rect width="1200" height="1400" filter="url(#g11)" fill="#8FA79B" opacity=".5" style="mix-blend-mode:overlay"/>
</svg>
