<svg xmlns="http://www.w3.org/2000/svg" viewBox="0 0 1200 1400" width="1200" height="1400" preserveAspectRatio="xMidYMid slice" role="img" aria-label="An empty hall set for a sitting">
  <title>An empty hall set for a sitting</title>
  <defs>
  <linearGradient id="sky10" x1="0" y1="0" x2="0" y2="1">
    <stop offset="0" stop-color="#123B37"/>
    <stop offset="0.62" stop-color="#0E3B38"/>
    <stop offset="1" stop-color="#0A2A28"/>
  </linearGradient>
  <radialGradient id="glow10" cx="0.5" cy="0.32" r="0.6">
    <stop offset="0" stop-color="#CFE0D5" stop-opacity=".85"/>
    <stop offset=".45" stop-color="#CFE0D5" stop-opacity=".3"/>
    <stop offset="1" stop-color="#CFE0D5" stop-opacity="0"/>
  </radialGradient>
  <linearGradient id="mist10" x1="0" y1="0" x2="0" y2="1">
    <stop offset="0" stop-color="#0A2624" stop-opacity="0.5"/>
    <stop offset="1" stop-color="#0A2624" stop-opacity="0"/>
  </linearGradient>
  <linearGradient id="water10" x1="0" y1="0" x2="0" y2="1">
    <stop offset="0" stop-color="#0E3B38"/>
    <stop offset="1" stop-color="#123B37"/>
  </linearGradient>
  <filter id="g10" x="0" y="0" width="100%" height="100%">
    <feTurbulence type="fractalNoise" baseFrequency="0.9" numOctaves="3" seed="10" result="n"/>
    <feColorMatrix type="saturate" values="0" in="n" result="d"/>
    <feComponentTransfer in="d" result="t"><feFuncA type="linear" slope="0.15"/></feComponentTransfer>
    <feComposite operator="in" in="t" in2="SourceGraphic"/>
  </filter>
  </defs>
  <g>
    <rect width="1200" height="1400" fill="#0E3B38"/>
    <rect width="1200" height="1400" fill="url(#sky10)" opacity=".55"/>
    <path d="M 320.0 1150 L 320.0 530.0 A 280.0 280.0 0 0 1 880.0 530.0 L 880.0 1150 Z" fill="url(#glow10)"/>
    <path d="M 320.0 1150 L 320.0 530.0 A 280.0 280.0 0 0 1 880.0 530.0 L 880.0 1150 Z" fill="#CFE0D5" opacity=".28"/>
    <path d="M 250.0 1400 L 360.0 1150 L 840.0 1150 L 950.0 1400 Z" fill="#CFE0D5" opacity=".16"/>
    <rect x="0" y="1150" width="1200" height="250" fill="#0A2A28" opacity=".92"/>
    <rect x="0" y="1150" width="1200" height="250" fill="url(#mist10)"/>
  </g>
  <rect width="1200" height="1400" filter="url(#g10)" fill="#8FA79B" opacity=".5" style="mix-blend-mode:overlay"/>
</svg>
